<?xml version="1.0" encoding="UTF-8"?>
<svg width="32" height="32" viewBox="0 0 32 32" fill="none" xmlns="http://www.w3.org/2000/svg">
  <path d="M16 2C8.268 2 2 8.268 2 16C2 23.732 8.268 30 16 30C23.732 30 30 23.732 30 16C30 8.268 23.732 2 16 2Z" fill="#672c8e"/>
  <path d="M16 5C9.925 5 5 9.925 5 16C5 22.075 9.925 27 16 27C22.075 27 27 22.075 27 16C27 9.925 22.075 5 16 5ZM16 25C11.05 25 7 20.95 7 16C7 11.05 11.05 7 16 7C20.95 7 25 11.05 25 16C25 20.95 20.95 25 16 25Z" fill="white"/>
  <path d="M16 9C12.15 9 9 12.15 9 16C9 19.85 12.15 23 16 23C19.85 23 23 19.85 23 16C23 12.15 19.85 9 16 9ZM16 21C13.25 21 11 18.75 11 16C11 13.25 13.25 11 16 11C18.75 11 21 13.25 21 16C21 18.75 18.75 21 16 21Z" fill="#672c8e"/>
  <path d="M16 13C14.35 13 13 14.35 13 16C13 17.65 14.35 19 16 19C17.65 19 19 17.65 19 16C19 14.35 17.65 13 16 13Z" fill="white"/>
</svg>
