<?xml version="1.0" encoding="UTF-8"?>
<svg width="200" height="200" viewBox="0 0 200 200" fill="none" xmlns="http://www.w3.org/2000/svg">
  <path d="M100 10C48.5 10 10 48.5 10 100C10 151.5 48.5 190 100 190C151.5 190 190 151.5 190 100C190 48.5 151.5 10 100 10Z" fill="currentColor"/>
  <path d="M100 30C59.5 30 30 59.5 30 100C30 140.5 59.5 170 100 170C140.5 170 170 140.5 170 100C170 59.5 140.5 30 100 30ZM100 160C65 160 40 135 40 100C40 65 65 40 100 40C135 40 160 65 160 100C160 135 135 160 100 160Z" fill="white"/>
  <path d="M100 50C70.5 50 50 70.5 50 100C50 129.5 70.5 150 100 150C129.5 150 150 129.5 150 100C150 70.5 129.5 50 100 50ZM100 140C76 140 60 124 60 100C60 76 76 60 100 60C124 60 140 76 140 100C140 124 124 140 100 140Z" fill="currentColor"/>
  <path d="M100 80C88.5 80 80 88.5 80 100C80 111.5 88.5 120 100 120C111.5 120 120 111.5 120 100C120 88.5 111.5 80 100 80Z" fill="white"/>
</svg>
